<svg width="41" height="60" viewBox="0 0 41 60" fill="none" xmlns="http://www.w3.org/2000/svg">
<path d="M9.6426 1.5196L17.5781 2.54011C17.5778 2.54244 17.5762 2.54771 17.5752 2.55573C17.5731 2.57214 17.5703 2.60054 17.5655 2.63972C17.5558 2.71807 17.5408 2.84118 17.5215 3.00593C17.4828 3.33599 17.4267 3.83344 17.3604 4.47272C17.2276 5.75255 17.0545 7.59694 16.8985 9.8155C16.5842 14.2828 16.3482 20.1333 16.6172 25.8966C16.8939 31.8231 16.653 37.1134 18 40.5C18.6598 42.1588 19.4341 42.5815 20.5625 42.9737C21.4565 43.2844 22.5192 42.8535 22.9336 42.4727C23.1785 42.2476 23.5877 41.6869 23.9092 40.4727C24.2261 39.2756 24.3269 37.9221 24.3155 36.754C24.3073 35.9219 24.2735 35.5 24.2246 35.1602L24.2227 35.1456C24.2233 35.1499 24.2238 35.1542 24.2246 35.1602C24.2251 35.1634 24.2261 35.1683 24.2266 35.1719L24.2276 35.1778C23.5882 30.8087 26.6102 26.7471 30.9795 26.1046C35.3506 25.462 39.4148 28.4845 40.0576 32.8555C39.8583 31.5 40.0571 32.852 40.0586 32.8624C40.0586 32.8624 40.0593 32.867 40.0596 32.8692C40.0616 32.8833 40.0647 32.9001 40.0674 32.919C40.071 32.9443 40.0746 32.9742 40.0791 33.0079C40.0882 33.0756 40.0994 33.1605 40.1114 33.2608C40.1353 33.4614 40.1641 33.7264 40.1924 34.0469C40.2487 34.6855 40.3043 35.5607 40.3145 36.5977C40.3343 38.617 40.185 41.5139 39.377 44.5665C38.5735 47.6017 36.9828 51.2915 33.7588 54.254C30.3752 57.3631 25.8995 59.0196 20.6426 59.0196C11.3911 59.0194 6.47276 52.0586 4.1592 46.2423C1.81455 40.3476 0.935804 33.091 0.634789 26.6426C0.326151 20.031 0.598887 13.5064 0.937523 8.69245C1.10789 6.27064 1.29722 4.24755 1.44534 2.82038C1.51944 2.1063 1.58363 1.53958 1.62991 1.1446C1.65304 0.94716 1.67216 0.792532 1.68557 0.683662C1.69228 0.629214 1.69727 0.585918 1.7012 0.554755C1.70316 0.539198 1.70485 0.52628 1.70608 0.516669C1.70667 0.512036 1.70762 0.508166 1.70803 0.504951V0.500068C1.70988 0.498591 1.82315 0.512003 9.6426 1.5196Z" fill="#DCAF79"/>
<path d="M24.2246 35.1602L24.2227 35.1456C24.2233 35.1499 24.2238 35.1542 24.2246 35.1602ZM24.2246 35.1602C24.2251 35.1634 24.2261 35.1683 24.2266 35.1719L24.2276 35.1778C23.5882 30.8087 26.6102 26.7471 30.9795 26.1046C35.3506 25.462 39.4148 28.4845 40.0576 32.8555C39.8583 31.5 40.0571 32.852 40.0586 32.8624C40.0586 32.8624 40.0593 32.867 40.0596 32.8692C40.0616 32.8833 40.0647 32.9001 40.0674 32.919C40.071 32.9443 40.0746 32.9742 40.0791 33.0079C40.0882 33.0756 40.0994 33.1605 40.1114 33.2608C40.1353 33.4614 40.1641 33.7264 40.1924 34.0469C40.2487 34.6855 40.3043 35.5607 40.3145 36.5977C40.3343 38.617 40.185 41.5139 39.377 44.5665C38.5735 47.6017 36.9828 51.2915 33.7588 54.254C30.3752 57.3631 25.8995 59.0196 20.6426 59.0196C11.3911 59.0194 6.47276 52.0586 4.1592 46.2423C1.81455 40.3476 0.935804 33.091 0.634789 26.6426C0.326151 20.031 0.598887 13.5064 0.937523 8.69245C1.10789 6.27064 1.29722 4.24755 1.44534 2.82038C1.51944 2.1063 1.58363 1.53958 1.62991 1.1446C1.65304 0.94716 1.67216 0.792532 1.68557 0.683662C1.69228 0.629214 1.69727 0.585918 1.7012 0.554755C1.70316 0.539198 1.70485 0.52628 1.70608 0.516669C1.70667 0.512036 1.70762 0.508166 1.70803 0.504951V0.500068C1.70988 0.498591 1.82315 0.512003 9.6426 1.5196L17.5781 2.54011C17.5778 2.54244 17.5762 2.54771 17.5752 2.55573C17.5731 2.57214 17.5703 2.60054 17.5655 2.63972C17.5558 2.71807 17.5408 2.84118 17.5215 3.00593C17.4828 3.33599 17.4267 3.83344 17.3604 4.47272C17.2276 5.75255 17.0545 7.59694 16.8985 9.8155C16.5842 14.2828 16.3482 20.1333 16.6172 25.8966C16.8939 31.8231 16.653 37.1134 18 40.5C18.6598 42.1588 19.4341 42.5815 20.5625 42.9737C21.4565 43.2844 22.5192 42.8535 22.9336 42.4727C23.1785 42.2476 23.5877 41.6869 23.9092 40.4727C24.2261 39.2756 24.3269 37.9221 24.3155 36.754C24.3073 35.9219 24.2735 35.5 24.2246 35.1602Z" stroke="#814F2B"/>
<path d="M24.5 34.2711L40.1497 33.5L40.4208 39.002L24.0001 40L24.5 34.2711Z" fill="#814F2B"/>
<path d="M23.1828 41.7672L38.5 47.5L35.5 52.5L19.5 43L23.1828 41.7672Z" fill="#814F2B"/>
</svg>
