<svg width="100" height="100" viewBox="0 0 100 100" fill="none" xmlns="http://www.w3.org/2000/svg">
<path d="M89.442 11.4181C76.909 16.6081 23.172 38.8671 8.32399 44.9341C-1.63401 48.8201 4.19499 52.4631 4.19499 52.4631C4.19499 52.4631 12.695 55.3771 19.981 57.5631C27.267 59.7491 31.153 57.3201 31.153 57.3201L65.397 34.2471C77.54 25.9901 74.626 32.7901 71.712 35.7041C65.397 42.0191 54.954 51.9761 46.211 59.9911C42.325 63.3911 44.268 66.3061 45.968 67.7631C52.283 73.1061 69.526 84.0351 70.498 84.7641C75.629 88.3961 85.721 93.6251 87.256 82.5781L93.328 44.4481C95.271 31.5761 97.214 19.6751 97.457 16.2751C98.185 8.01807 89.442 11.4181 89.442 11.4181Z" fill="#2A9D8F"/>
</svg>
